<svg width="39" height="33" viewBox="0 0 39 33" fill="none" xmlns="http://www.w3.org/2000/svg">
<path d="M0 10C0 4.47715 4.47715 0 10 0H29C34.5228 0 39 4.47715 39 10V23C39 28.5228 34.5228 33 29 33H10C4.47715 33 0 28.5228 0 23V10Z" fill="#FAEDE8"/>
<path fill-rule="evenodd" clip-rule="evenodd" d="M24.8438 24.5156C24.9556 24.5156 25.0629 24.5601 25.1421 24.6392C25.2212 24.7183 25.2656 24.8256 25.2656 24.9375C25.2656 25.0494 25.2212 25.1567 25.1421 25.2358C25.0629 25.3149 24.9556 25.3594 24.8438 25.3594C24.7319 25.3594 24.6246 25.3149 24.5454 25.2358C24.4663 25.1567 24.4219 25.0494 24.4219 24.9375C24.4219 24.8256 24.4663 24.7183 24.5454 24.6392C24.6246 24.5601 24.7319 24.5156 24.8438 24.5156ZM23.1562 24.9375C23.1562 25.8679 23.9134 26.625 24.8438 26.625C25.7741 26.625 26.5312 25.8679 26.5312 24.9375C26.5312 24.0071 25.7741 23.25 24.8438 23.25C23.9134 23.25 23.1562 24.0071 23.1562 24.9375ZM11.0625 25.4387C10.9506 25.4387 10.8433 25.3942 10.7642 25.3151C10.6851 25.236 10.6406 25.1287 10.6406 25.0168C10.6406 24.9049 10.6851 24.7976 10.7642 24.7185C10.8433 24.6394 10.9506 24.5949 11.0625 24.5949C11.1744 24.5949 11.2817 24.6394 11.3608 24.7185C11.4399 24.7976 11.4844 24.9049 11.4844 25.0168C11.4844 25.1287 11.4399 25.236 11.3608 25.3151C11.2817 25.3942 11.1744 25.4387 11.0625 25.4387ZM11.0625 23.2449C10.1321 23.2449 9.375 24.0021 9.375 24.9324C9.375 25.8628 10.1321 26.6199 11.0625 26.6199C11.9929 26.6199 12.75 25.8628 12.75 24.9324C12.75 24.0021 11.9929 23.2449 11.0625 23.2449ZM26.7861 17.2177L23.8802 17.3094L23.9955 13.9688H27.6939L27.5618 16.4331C27.5325 16.8578 27.1905 17.1947 26.7861 17.2177ZM14.9454 16.4083L14.4212 13.9688H18.0943V17.4923L15.0062 17.5896C15.0382 17.1986 15.0231 16.8021 14.9454 16.4083ZM16.6875 10.3125H18.0938V13.125H14.2389L13.5504 9.921C14.3199 10.1415 15.3431 10.3125 16.6875 10.3125ZM23.1506 13.9688L23.0347 17.3359L18.9375 17.4653V13.9688H23.1506ZM23.2772 10.3125L23.1799 13.125H18.9375V10.3125H23.2772ZM27.7395 13.125H24.0247L24.1215 10.3125H27.8908L27.7395 13.125ZM29.3938 8.88825C29.3149 8.80506 29.22 8.73881 29.1146 8.69355C29.0093 8.64829 28.8959 8.62497 28.7812 8.625H16.6875C14.7334 8.625 13.6376 8.22169 13.128 7.95731L13.0802 7.73513C12.996 7.35092 12.7834 7.00686 12.4774 6.75963C12.1715 6.5124 11.7905 6.37674 11.3972 6.375H9.375V8.0625L11.4298 8.0895L13.2928 16.7475C13.3607 17.0935 13.3557 17.45 13.2779 17.7939C13.2001 18.1379 13.0513 18.4618 12.8411 18.7449L11.8084 20.073C11.5808 20.3632 11.4398 20.7118 11.4018 21.0787C11.3638 21.4455 11.4302 21.8157 11.5935 22.1464C11.7544 22.4785 12.0059 22.7583 12.319 22.9536C12.6322 23.1488 12.9941 23.2516 13.3631 23.25H26.5031V21.5625H13.3631C13.3101 21.5641 13.2578 21.55 13.2128 21.5219C13.1678 21.4939 13.132 21.4533 13.11 21.405C13.0855 21.3581 13.0752 21.305 13.0805 21.2523C13.0858 21.1996 13.1064 21.1497 13.1398 21.1086L14.1816 19.7693C14.2952 19.6179 14.3942 19.4576 14.4859 19.2939L26.8592 18.9036C27.4774 18.868 28.0613 18.6076 28.5009 18.1714C28.9405 17.7352 29.2054 17.1534 29.2459 16.5354L29.6239 9.51431C29.63 9.39981 29.6127 9.28526 29.5732 9.17763C29.5336 9.07001 29.4726 8.97155 29.3938 8.88825Z" fill="#F05228"/>
</svg>
