<svg width="55" height="19" viewBox="0 0 55 19" fill="none" xmlns="http://www.w3.org/2000/svg">
<path d="M8.86801 0.959976L7.86001 1.22398V8.37598L8.86801 8.63998C8.86801 8.87998 8.80801 8.99998 8.68801 8.99998C8.61601 8.99998 8.20401 8.98398 7.45201 8.95198L6.19201 8.99998C6.07201 8.99998 6.01201 8.87998 6.01201 8.63998L6.97201 8.37598L6.85201 4.91998L2.60401 5.08798L2.49601 8.37598L3.45601 8.63998C3.45601 8.87998 3.39601 8.99998 3.27601 8.99998C3.18001 8.99998 2.76001 8.98398 2.01601 8.95198L0.780006 8.99998C0.660006 8.99998 0.600006 8.87998 0.600006 8.63998L1.60801 8.37598V1.22398L0.600006 0.959976C0.600006 0.719976 0.660006 0.599976 0.780006 0.599976C0.852006 0.599976 1.26401 0.615976 2.01601 0.647976L3.27601 0.599976C3.39601 0.599976 3.45601 0.719976 3.45601 0.959976L2.49601 1.22398L2.60401 4.39198H6.86401L6.97201 1.22398L6.01201 0.959976C6.01201 0.719976 6.07201 0.599976 6.19201 0.599976C6.28801 0.599976 6.70801 0.615976 7.45201 0.647976L8.68801 0.599976C8.80801 0.599976 8.86801 0.719976 8.86801 0.959976Z" fill="black"/>
<path d="M12.9248 3.03598C13.7968 3.03598 14.5128 3.28798 15.0728 3.79198C15.6328 4.29598 15.9128 5.03998 15.9128 6.02398C15.9128 7.00798 15.6288 7.76798 15.0608 8.30398C14.5008 8.83198 13.7688 9.09598 12.8648 9.09598C11.9608 9.09598 11.2368 8.83598 10.6928 8.31598C10.1568 7.78798 9.88876 7.03998 9.88876 6.07198C9.88876 5.09598 10.1768 4.34798 10.7528 3.82798C11.3288 3.29998 12.0528 3.03598 12.9248 3.03598ZM10.8248 6.04798C10.8248 6.86398 11.0168 7.48798 11.4008 7.91998C11.7848 8.35198 12.2848 8.56798 12.9008 8.56798C13.5168 8.56798 14.0168 8.35198 14.4008 7.91998C14.7848 7.48798 14.9768 6.87198 14.9768 6.07198C14.9768 5.27198 14.7848 4.66398 14.4008 4.24798C14.0168 3.82398 13.5168 3.61198 12.9008 3.61198C12.5008 3.61198 12.0928 3.67198 11.6768 3.79198C11.4208 3.98398 11.2128 4.28398 11.0528 4.69198C10.9008 5.09198 10.8248 5.54398 10.8248 6.04798Z" fill="black"/>
<path d="M17.4279 3.13198L18.9519 3.20398L20.7279 7.24798L22.6959 3.20398L24.1239 3.13198C24.1879 3.13198 24.2359 3.17598 24.2679 3.26398C24.3079 3.34398 24.3279 3.42798 24.3279 3.51598L23.5719 3.69598L23.8599 8.45998C23.9239 8.47598 24.0519 8.50398 24.2439 8.54398C24.4359 8.57598 24.5639 8.60398 24.6279 8.62798C24.6279 8.87598 24.5599 8.99998 24.4239 8.99998L23.4039 8.92798L22.4079 8.99998C22.2639 8.99998 22.1919 8.87598 22.1919 8.62798L23.0319 8.44798L22.8519 4.33198L20.7639 8.59198H20.4879L18.5799 4.41598L18.4239 8.45998C18.4639 8.46798 18.7399 8.52398 19.2519 8.62798C19.2519 8.87598 19.1759 8.99998 19.0239 8.99998L18.0399 8.92798L17.1399 8.99998C17.0039 8.99998 16.9359 8.87598 16.9359 8.62798L17.7039 8.45998C17.7359 7.92398 17.7799 7.12798 17.8359 6.07198C17.8999 5.01598 17.9479 4.21998 17.9799 3.68398L17.2239 3.51598C17.2239 3.25998 17.2919 3.13198 17.4279 3.13198Z" fill="black"/>
<path d="M30.0665 8.99998L27.1025 8.92798L26.1065 8.99998C25.9625 8.99998 25.8905 8.87598 25.8905 8.62798L26.6585 8.45998V3.67198L25.8905 3.50398C25.8905 3.25598 25.9625 3.13198 26.1065 3.13198C26.2265 3.13198 26.5585 3.14398 27.1025 3.16798L30.0065 3.13198C30.1665 3.13198 30.2665 3.14798 30.3065 3.17998C30.3465 3.20398 30.3665 3.24398 30.3665 3.29998L30.1505 4.57198C29.8225 4.57198 29.6585 4.51198 29.6585 4.39198V3.69598L27.4625 3.71998L27.5705 5.71198H29.7905V6.20398L27.5585 6.33598L27.4625 8.41198H29.7665L29.9705 7.72798C29.9945 7.63998 30.0385 7.58398 30.1025 7.55998C30.1745 7.53598 30.2985 7.52398 30.4745 7.52398L30.4025 8.85598C30.3865 8.95198 30.2745 8.99998 30.0665 8.99998Z" fill="black"/>
<path d="M24.104 15.672L24.008 17.388C23.336 17.892 22.436 18.144 21.308 18.144C20.18 18.144 19.26 17.768 18.548 17.016C17.836 16.264 17.48 15.196 17.48 13.812C17.48 12.42 17.864 11.348 18.632 10.596C19.4 9.83598 20.372 9.45598 21.548 9.45598C22.484 9.45598 23.308 9.69598 24.02 10.176L23.708 11.964C23.348 11.964 23.168 11.908 23.168 11.796V10.464C22.664 10.264 22.112 10.164 21.512 10.164C20.912 10.164 20.324 10.26 19.748 10.452C19.372 10.732 19.076 11.168 18.86 11.76C18.644 12.352 18.536 13.024 18.536 13.776C18.536 14.984 18.808 15.908 19.352 16.548C19.896 17.188 20.604 17.508 21.476 17.508C22.196 17.508 22.8 17.36 23.288 17.064L23.564 15.84C23.596 15.728 23.776 15.672 24.104 15.672Z" fill="black"/>
<path d="M29.5352 18L26.5712 17.928L25.5752 18C25.4312 18 25.3592 17.876 25.3592 17.628L26.1272 17.46V12.672L25.3592 12.504C25.3592 12.256 25.4312 12.132 25.5752 12.132C25.6952 12.132 26.0272 12.144 26.5712 12.168L29.4752 12.132C29.6352 12.132 29.7352 12.148 29.7752 12.18C29.8152 12.204 29.8352 12.244 29.8352 12.3L29.6192 13.572C29.2912 13.572 29.1272 13.512 29.1272 13.392V12.696L26.9312 12.72L27.0392 14.712H29.2592V15.204L27.0272 15.336L26.9312 17.412H29.2352L29.4392 16.728C29.4632 16.64 29.5072 16.584 29.5712 16.56C29.6432 16.536 29.7672 16.524 29.9432 16.524L29.8712 17.856C29.8552 17.952 29.7432 18 29.5352 18Z" fill="black"/>
<path d="M35.3123 12.132L36.4403 12.168L37.2563 12.132C37.3923 12.148 37.4603 12.272 37.4603 12.504L36.7763 12.684L36.7403 18H36.2003L32.4803 13.38C32.4883 13.828 32.5043 14.508 32.5283 15.42C32.5523 16.324 32.5683 17.004 32.5763 17.46C32.7763 17.508 33.0923 17.564 33.5243 17.628C33.5243 17.876 33.4523 18 33.3083 18L32.2043 17.928L31.3043 18C31.1603 18 31.0883 17.876 31.0883 17.628L31.8803 17.448L31.8443 12.684L31.0883 12.516C31.0883 12.26 31.1603 12.132 31.3043 12.132C31.4163 12.132 31.8363 12.144 32.5643 12.168L36.1283 16.68L36.0563 12.684L35.1083 12.516C35.1083 12.26 35.1763 12.132 35.3123 12.132Z" fill="black"/>
<path d="M42.5826 12.684L41.2146 12.708V17.424L42.1866 17.628C42.1866 17.876 42.1186 18 41.9826 18L40.8186 17.928L39.6306 18C39.4786 18 39.4026 17.876 39.4026 17.628L40.3746 17.424V12.708L39.0186 12.684L38.8986 13.524C38.8986 13.644 38.7386 13.704 38.4186 13.704L38.2986 12.288C38.3146 12.184 38.4346 12.132 38.6586 12.132L40.8186 12.18L42.9426 12.132C43.1666 12.132 43.2866 12.184 43.3026 12.288L43.1826 13.704C42.8626 13.704 42.7026 13.644 42.7026 13.524L42.5826 12.684Z" fill="black"/>
<path d="M48.379 18L45.415 17.928L44.419 18C44.275 18 44.203 17.876 44.203 17.628L44.971 17.46V12.672L44.203 12.504C44.203 12.256 44.275 12.132 44.419 12.132C44.539 12.132 44.871 12.144 45.415 12.168L48.319 12.132C48.479 12.132 48.579 12.148 48.619 12.18C48.659 12.204 48.679 12.244 48.679 12.3L48.463 13.572C48.135 13.572 47.971 13.512 47.971 13.392V12.696L45.775 12.72L45.883 14.712H48.103V15.204L45.871 15.336L45.775 17.412H48.079L48.283 16.728C48.307 16.64 48.351 16.584 48.415 16.56C48.487 16.536 48.611 16.524 48.787 16.524L48.715 17.856C48.699 17.952 48.587 18 48.379 18Z" fill="black"/>
<path d="M51.66 15.528L51.576 17.46L52.488 17.628C52.488 17.876 52.42 18 52.284 18L51.204 17.928L50.208 18C50.064 18 49.992 17.876 49.992 17.628L50.76 17.46V12.672L49.992 12.504C49.992 12.256 50.064 12.132 50.208 12.132C50.328 12.132 50.66 12.144 51.204 12.168L52.428 12.132C53.012 12.132 53.476 12.288 53.82 12.6C54.164 12.912 54.336 13.3 54.336 13.764C54.336 14.052 54.24 14.332 54.048 14.604C53.856 14.876 53.576 15.084 53.208 15.228L54.972 18.072L54.36 18.252L52.368 15.42L51.66 15.528ZM51.684 14.952L52.116 14.964C52.564 14.948 52.912 14.82 53.16 14.58C53.416 14.34 53.544 14.068 53.544 13.764C53.544 13.452 53.436 13.184 53.22 12.96C53.004 12.736 52.692 12.62 52.284 12.612L51.576 12.672L51.684 14.952Z" fill="black"/>
<path d="M33 5H55V8H33V5Z" fill="#FFB400"/>
<path d="M0 13H16V16H0V13Z" fill="#FFB400"/>
</svg>
