<svg width="130" height="23" viewBox="0 0 130 23" fill="none" xmlns="http://www.w3.org/2000/svg">
<path d="M0 1.96027C0 1.54167 0.138791 1.18433 0.416374 0.888248C0.703528 0.581956 1.04333 0.42881 1.43577 0.42881H1.45013L15.7935 0.336922H15.8222C16.2146 0.336922 16.5497 0.490068 16.8272 0.796361C17.1144 1.09244 17.258 1.44978 17.258 1.86838C17.258 2.28698 17.1144 2.64943 16.8272 2.95572C16.5497 3.25181 16.2146 3.39985 15.8222 3.39985H15.8078L10.0935 3.43048L10.0217 21.0117V21.027C10.0217 21.4354 9.87811 21.7876 9.59095 22.0837C9.31337 22.3798 8.97836 22.5278 8.58591 22.5278C8.19347 22.5278 7.85367 22.3798 7.56652 22.0837C7.28893 21.7876 7.15014 21.4354 7.15014 21.027V20.9964L7.22193 3.44579L1.45013 3.49173H1.43577C1.04333 3.49173 0.703528 3.34369 0.416374 3.04761C0.138791 2.74132 0 2.37887 0 1.96027Z" fill="#FF9E2D"/>
<path d="M28.9882 20.2766C28.4714 20.8075 27.854 21.3435 27.1361 21.8846C26.4182 22.4155 25.5759 22.681 24.6091 22.681C23.3552 22.681 22.3119 22.3287 21.4791 21.6243C20.6464 20.9096 20.0338 20.0826 19.6414 19.1433C19.3351 18.398 19.1484 17.6629 19.0814 16.938C19.024 16.2029 18.9953 15.5137 18.9953 14.8705V7.13662C18.9953 6.71802 19.1341 6.36068 19.4116 6.06459C19.6988 5.7583 20.0386 5.60515 20.431 5.60515C20.8235 5.60515 21.1585 5.7583 21.4361 6.06459C21.7232 6.36068 21.8668 6.71802 21.8668 7.13662V14.8705C21.8668 15.4627 21.8907 16.0191 21.9386 16.5398C21.996 17.0503 22.1061 17.4995 22.2688 17.8875C22.4603 18.3367 22.7474 18.74 23.1303 19.0973C23.5132 19.4445 23.9965 19.618 24.5804 19.618C25.997 19.618 27.0834 19.0412 27.8396 17.8875C28.6054 16.7338 28.9834 15.1768 28.9739 13.2165L28.9595 7.10599C28.9595 6.68739 29.0983 6.33005 29.3759 6.03396C29.663 5.72767 30.0028 5.57452 30.3953 5.57452C30.7973 5.57452 31.1371 5.72767 31.4147 6.03396C31.6923 6.33005 31.8311 6.69249 31.8311 7.1213L31.8598 21.1954C31.8598 21.614 31.7497 21.9765 31.5295 22.2828C31.319 22.5789 31.0175 22.7269 30.625 22.7269C30.2326 22.7269 29.9311 22.5789 29.7205 22.2828C29.5099 21.9765 29.3472 21.614 29.2323 21.1954L28.9882 20.2766Z" fill="#FF9E2D"/>
<path d="M33.9273 14.1048C33.9273 12.9511 34.1283 11.828 34.5303 10.7356C34.9323 9.64311 35.5258 8.67829 36.3107 7.84109C37.0094 7.1162 37.8134 6.55466 38.7228 6.15648C39.6321 5.7583 40.5749 5.55921 41.5512 5.55921C42.5467 5.55921 43.4321 5.78382 44.2074 6.23305C44.9827 6.68228 45.6767 7.28976 46.2893 8.05549V1.60804C46.2893 1.18944 46.4281 0.832095 46.7057 0.536012C46.9928 0.229719 47.3326 0.0765731 47.7251 0.0765731C48.1175 0.0765731 48.4525 0.229719 48.7301 0.536012C49.0172 0.832095 49.1608 1.18944 49.1608 1.60804V21.1648C49.1608 21.5834 49.0172 21.9459 48.7301 22.2522C48.4525 22.5482 48.1175 22.6963 47.7251 22.6963C47.3326 22.6963 47.0359 22.5482 46.8349 22.2522C46.6434 21.9459 46.519 21.5834 46.4616 21.1648L46.2893 19.9243C45.7437 20.7615 45.021 21.4201 44.1213 21.8999C43.2311 22.3798 42.3409 22.6197 41.4507 22.6197C40.3691 22.6197 39.3689 22.39 38.45 21.9305C37.5406 21.4711 36.7462 20.8483 36.0666 20.0622C35.387 19.2658 34.8605 18.3571 34.4872 17.3362C34.1139 16.3152 33.9273 15.2381 33.9273 14.1048ZM41.422 19.5568C42.0442 19.5568 42.6616 19.4087 43.2742 19.1127C43.8868 18.8166 44.4084 18.4184 44.8391 17.9181C45.2699 17.4076 45.6001 16.8104 45.8298 16.1263C46.0691 15.4422 46.1888 14.7429 46.1888 14.0282C46.1888 13.0481 45.9878 12.1445 45.5858 11.3175C45.1837 10.4905 44.6286 9.82689 43.9203 9.32661C43.2215 8.82633 42.4127 8.57619 41.4938 8.57619C40.5941 8.57619 39.7852 8.84165 39.0673 9.37255C38.359 9.89325 37.7991 10.5773 37.3875 11.4247C36.9855 12.2619 36.7845 13.1553 36.7845 14.1048C36.7845 15.0543 36.9855 15.9476 37.3875 16.7848C37.7895 17.6118 38.3399 18.2806 39.0386 18.791C39.7469 19.3015 40.5414 19.5568 41.422 19.5568Z" fill="#FF9E2D"/>
<path d="M61.3792 0.122517C62.8437 0.122517 64.1886 0.42881 65.4138 1.04139C66.6485 1.64377 67.7206 2.47586 68.6299 3.53768C69.5392 4.58928 70.2427 5.80424 70.7405 7.18256C71.2382 8.55067 71.4871 10.0056 71.4871 11.5472C71.4871 13.0889 71.2382 14.5387 70.7405 15.8966C70.2523 17.2443 69.5583 18.4337 68.6586 19.4649C67.7589 20.4961 66.6916 21.3026 65.4568 21.8846C64.2316 22.4666 62.8772 22.7575 61.3936 22.7575C59.8813 22.7575 58.5077 22.4666 57.2729 21.8846C56.0382 21.2924 54.9757 20.4808 54.0855 19.4496C53.2049 18.4082 52.5253 17.2085 52.0467 15.8506C51.5681 14.4825 51.3288 13.0174 51.3288 11.4553C51.3288 9.93409 51.5777 8.49451 52.0754 7.13662C52.5827 5.77872 53.2863 4.57397 54.186 3.52236C55.0953 2.46055 56.1578 1.62846 57.3734 1.02608C58.5986 0.423705 59.9339 0.122517 61.3792 0.122517ZM61.4367 3.23139C60.02 3.23139 58.7661 3.62446 57.6749 4.41061C56.5933 5.19676 55.7414 6.23816 55.1193 7.5348C54.5067 8.82123 54.2004 10.2302 54.2004 11.7616C54.2004 12.803 54.387 13.7985 54.7603 14.748C55.1336 15.6975 55.6505 16.5449 56.311 17.2902C56.9714 18.0253 57.7324 18.6073 58.5938 19.0361C59.4649 19.4547 60.3933 19.664 61.3792 19.664C62.3651 19.664 63.2936 19.4445 64.1646 19.0055C65.0452 18.5664 65.8206 17.9743 66.4906 17.229C67.1702 16.4836 67.7014 15.6464 68.0843 14.7174C68.4672 13.7781 68.6586 12.8183 68.6586 11.8382C68.6586 10.2557 68.3332 8.81612 67.6823 7.51948C67.041 6.21263 66.1747 5.17124 65.0835 4.3953C63.9923 3.61936 62.7767 3.23139 61.4367 3.23139Z" fill="#FF5A5A"/>
<path d="M76.4405 7.99424C76.9574 7.45312 77.5747 6.91711 78.2926 6.3862C79.0201 5.85529 79.8624 5.58984 80.8196 5.58984C82.0735 5.58984 83.1168 5.94718 83.9496 6.66186C84.7823 7.36634 85.3949 8.18822 85.7874 9.12752C86.0937 9.87283 86.2755 10.613 86.333 11.3481C86.4 12.073 86.4335 12.7571 86.4335 13.4003V21.1342C86.4335 21.5528 86.2899 21.9152 86.0027 22.2215C85.7251 22.5176 85.3901 22.6656 84.9977 22.6656C84.6052 22.6656 84.2654 22.5176 83.9783 22.2215C83.7007 21.9152 83.5619 21.5528 83.5619 21.1342V13.4003C83.5619 12.7979 83.5332 12.2415 83.4758 11.731C83.4279 11.2205 83.3226 10.7713 83.1599 10.3833C82.978 9.93409 82.6957 9.53591 82.3128 9.18878C81.9299 8.83143 81.4418 8.65276 80.8483 8.65276C79.4317 8.65276 78.3405 9.22962 77.5747 10.3833C76.8186 11.537 76.4453 13.094 76.4548 15.0543L76.4692 21.1648C76.4692 21.5834 76.3256 21.9459 76.0385 22.2522C75.7609 22.5482 75.4259 22.6963 75.0334 22.6963C74.6314 22.6963 74.2916 22.5482 74.014 22.2522C73.7365 21.9459 73.5977 21.5783 73.5977 21.1495L73.5689 7.07536C73.5689 6.65676 73.6742 6.29942 73.8848 6.00333C74.105 5.69704 74.4113 5.5439 74.8037 5.5439C75.1961 5.5439 75.4977 5.69704 75.7082 6.00333C75.9188 6.29942 76.0815 6.65676 76.1964 7.07536L76.4405 7.99424Z" fill="#FF9E2D"/>
<path d="M90.5254 0C90.9849 0 91.3534 0.163356 91.631 0.490068C91.9085 0.80657 92.0425 1.1537 92.033 1.53146V21.2567C92.033 21.6651 91.8798 21.9969 91.5735 22.2522C91.2768 22.4972 90.9801 22.6197 90.6833 22.6197C90.2718 22.6197 89.9128 22.4768 89.6065 22.1909C89.3098 21.905 89.1614 21.5375 89.1614 21.0882V1.53146C89.1614 1.14349 89.2906 0.791256 89.5491 0.474753C89.8171 0.158251 90.1425 0 90.5254 0Z" fill="#FF9E2D"/>
<path d="M96.3116 3.99712C95.8713 3.99712 95.5123 3.85418 95.2347 3.56831C94.9572 3.27223 94.8136 2.90978 94.804 2.48097L94.7753 1.31706C94.7753 0.929087 94.938 0.61769 95.2635 0.382866C95.5889 0.137832 95.9 0.0153146 96.1967 0.0153146C96.5987 0.0153146 96.9337 0.163356 97.2017 0.459439C97.4793 0.755522 97.6229 1.11286 97.6325 1.53146L97.6468 2.45034C97.6468 2.84852 97.5224 3.20586 97.2735 3.52236C97.0247 3.83887 96.704 3.99712 96.3116 3.99712ZM94.7609 6.89158C94.7609 6.50361 94.9141 6.18711 95.2204 5.94208C95.5267 5.69704 95.8234 5.57452 96.1106 5.57452C96.5317 5.57452 96.8907 5.70725 97.1874 5.9727C97.4841 6.23816 97.6325 6.59039 97.6325 7.02941V7.04473L97.6612 21.2261C97.6612 21.6345 97.5176 21.9816 97.2305 22.2675C96.9529 22.5533 96.6179 22.6963 96.2254 22.6963C95.8234 22.6963 95.4836 22.5533 95.206 22.2675C94.9284 21.9714 94.7896 21.6191 94.7896 21.2108L94.7609 6.89158Z" fill="#FF9E2D"/>
<path d="M103.261 7.99424C103.778 7.45312 104.395 6.91711 105.113 6.3862C105.84 5.85529 106.683 5.58984 107.64 5.58984C108.894 5.58984 109.937 5.94718 110.77 6.66186C111.603 7.36634 112.215 8.18822 112.608 9.12752C112.914 9.87283 113.096 10.613 113.153 11.3481C113.22 12.073 113.254 12.7571 113.254 13.4003V21.1342C113.254 21.5528 113.11 21.9152 112.823 22.2215C112.545 22.5176 112.21 22.6656 111.818 22.6656C111.425 22.6656 111.086 22.5176 110.799 22.2215C110.521 21.9152 110.382 21.5528 110.382 21.1342V13.4003C110.382 12.7979 110.353 12.2415 110.296 11.731C110.248 11.2205 110.143 10.7713 109.98 10.3833C109.798 9.93409 109.516 9.53591 109.133 9.18878C108.75 8.83143 108.262 8.65276 107.669 8.65276C106.252 8.65276 105.161 9.22962 104.395 10.3833C103.639 11.537 103.265 13.094 103.275 15.0543L103.289 21.1648C103.289 21.5834 103.146 21.9459 102.859 22.2522C102.581 22.5482 102.246 22.6963 101.854 22.6963C101.452 22.6963 101.112 22.5482 100.834 22.2522C100.557 21.9459 100.418 21.5783 100.418 21.1495L100.389 7.07536C100.389 6.65676 100.494 6.29942 100.705 6.00333C100.925 5.69704 101.231 5.5439 101.624 5.5439C102.016 5.5439 102.318 5.69704 102.528 6.00333C102.739 6.29942 102.902 6.65676 103.017 7.07536L103.261 7.99424Z" fill="#FF9E2D"/>
<path d="M122.974 5.62047C124.247 5.62047 125.415 5.95739 126.477 6.63123C127.54 7.30508 128.391 8.21375 129.033 9.35724C129.684 10.4905 130.009 11.7514 130.009 13.14C130.009 13.4258 129.995 13.7168 129.966 14.0129C129.928 14.3906 129.765 14.7123 129.478 14.9777C129.2 15.233 128.884 15.3606 128.53 15.3606L118.494 15.3759C118.657 16.111 118.963 16.8001 119.413 17.4434C119.863 18.0866 120.409 18.6073 121.05 19.0055C121.701 19.4036 122.409 19.6027 123.175 19.6027C123.998 19.6027 124.735 19.3883 125.386 18.9595C126.037 18.5307 126.544 18.0355 126.908 17.474C127.023 17.28 127.195 17.1166 127.425 16.9839C127.664 16.8512 127.889 16.7848 128.1 16.7848C128.492 16.7848 128.827 16.938 129.105 17.2443C129.392 17.5506 129.535 17.913 129.535 18.3316C129.535 18.6583 129.449 18.9493 129.277 19.2045C128.683 20.1336 127.865 20.9402 126.822 21.6243C125.788 22.2981 124.587 22.635 123.218 22.635C122.117 22.635 121.093 22.4053 120.145 21.9459C119.207 21.4864 118.389 20.8585 117.69 20.0622C116.991 19.2658 116.446 18.352 116.053 17.3208C115.671 16.2794 115.479 15.1819 115.479 14.0282C115.479 12.9153 115.671 11.8586 116.053 10.8581C116.436 9.84731 116.968 8.94885 117.647 8.1627C118.336 7.37655 119.136 6.75886 120.045 6.30963C120.954 5.85019 121.931 5.62047 122.974 5.62047ZM127.051 12.2976C126.87 11.2971 126.401 10.4446 125.644 9.7401C124.888 9.03563 123.998 8.68339 122.974 8.68339C121.931 8.68339 121.007 9.04584 120.203 9.77073C119.408 10.4956 118.872 11.343 118.595 12.313L127.051 12.2976Z" fill="#FF9E2D"/>
<path d="M65.8014 11.5625C65.8014 13.1865 64.5672 14.503 63.0447 14.503C61.5223 14.503 60.2881 13.1865 60.2881 11.5625C60.2881 9.9386 61.5223 8.62214 63.0447 8.62214C64.5672 8.62214 65.8014 9.9386 65.8014 11.5625Z" fill="#FF9E2D"/>
<path d="M48.3424 11.5625C48.3424 13.1865 47.1082 14.503 45.5858 14.503C44.0633 14.503 42.8291 13.1865 42.8291 11.5625C42.8291 9.9386 44.0633 8.62214 45.5858 8.62214C47.1082 8.62214 48.3424 9.9386 48.3424 11.5625Z" fill="#FF9E2D"/>
</svg>
